<svg width="23" height="23" viewBox="0 0 23 23" xmlns="http://www.w3.org/2000/svg"><g fill="none" fill-rule="evenodd"><g fill="#999999"><path d="M21.27 13.7c-1.535 5.903-6.153 7.998-9.643 7.998-5.444 0-9.873-4.575-9.873-10.198s4.43-10.198 9.873-10.198c5.444 0 9.873 4.575 9.873 10.198 0 .743-.077 1.483-.23 2.2M11.628 0C5.487 0 .493 5.16.493 11.5S5.488 23 11.627 23c3.94 0 9.15-2.352 10.865-8.978l.007-.028c.173-.812.26-1.652.26-2.494C22.76 5.16 17.768 0 11.628 0"/><path d="M11.858 10.623c-1.333-.426-1.333-1.07-1.333-1.457 0-.356.29-1.137 1.147-1.137.583 0 1.03.245 1.305.452.28.212.675.148.88-.142.206-.29.144-.698-.137-.91-.33-.248-.827-.532-1.462-.647V5.34c0-.36-.283-.65-.63-.65-.348 0-.63.29-.63.65v1.482C9.82 7.155 9.264 8.33 9.264 9.166c0 1.34.727 2.224 2.222 2.7.694.222 1.52.64 1.52 1.375 0 .302-.225 1.428-1.335 1.428-.803 0-1.376-.398-1.646-.636-.265-.233-.664-.2-.89.074-.224.273-.193.685.072.918.322.283.938.714 1.79.877v1.33c0 .36.282.65.63.65.347 0 .63-.29.63-.65v-1.323c1.38-.304 2.01-1.665 2.01-2.666 0-.69-.312-1.948-2.41-2.617"/></g></g></svg>
