<svg width="23" height="23" viewBox="0 0 23 23" xmlns="http://www.w3.org/2000/svg"><g fill="none" fill-rule="evenodd"><g fill="#999999"><path d="M20.994 13.4c-1.552 5.776-6.218 7.826-9.744 7.826-5.5 0-9.977-4.475-9.977-9.976 0-5.5 4.476-9.976 9.977-9.976 5.5 0 9.976 4.475 9.976 9.976 0 .725-.078 1.448-.232 2.15M11.25 0C5.047 0 0 5.047 0 11.25S5.047 22.5 11.25 22.5c3.98 0 9.243-2.3 10.978-8.783l.007-.028c.176-.797.265-1.618.265-2.44C22.5 5.047 17.453 0 11.25 0"/><path d="M11.78 11.527V5.32c0-.353-.285-.638-.637-.638-.35 0-.636.285-.636.637v6.844c0 .35.285.636.636.636h3.273c.35 0 .636-.285.636-.636 0-.352-.285-.637-.636-.637H11.78z"/></g></g></svg>
