<svg xmlns="http://www.w3.org/2000/svg" viewBox="0 0 42.6 38"><linearGradient id="a" gradientUnits="userSpaceOnUse" x1="38.257" y1="37.068" x2="4.761" y2="3.572"><stop offset="0" stop-color="#DF2A50"/><stop offset="1" stop-color="#9D2B65"/></linearGradient><path fill="url(#a)" d="M32.4 12.7c0-7-7.3-12.7-16.2-12.7C7.3 0 0 5.7 0 12.7c0 3.2 2 7.8 6.4 10.7-.2 2.3-1 4.1-1.6 5.2-.1.3-.1.6.1.8.1.2.4.3.6.3h.2c2-.4 4.8-1.5 6.9-4.1l.1-.1h3.6c8.8 0 16.1-5.7 16.1-12.8zM11.2 24.6c-1.3 1.6-3 2.6-4.5 3.1.5-1.2 1-2.8 1.1-4.7 0-.3-.1-.5-.4-.7-4.2-2.5-6-6.8-6-9.7C1.4 6.4 8 1.3 16.1 1.3s14.7 5.1 14.7 11.3c0 6.2-6.6 11.3-14.7 11.3h-3.6c-.5.1-.9.3-1.3.7zm31.4-4.4c0-3.3-1.6-6.5-4.4-9-.3-.3-.8-.2-1.1.1-.3.3-.2.8.1 1 2.5 2.2 3.9 5 3.9 7.9 0 2.8-2.8 7.9-6.4 10.2-.2.1-.4.4-.3.7.1 2 .6 3.7 1.2 5-1.6-.6-3.4-1.6-4.8-3.4-.3-.4-.8-.6-1.3-.6h-3.8c-3.4 0-6.7-.8-9.4-2.4-.4-.2-.8-.1-1 .3-.2.3-.1.8.3 1 3 1.7 6.5 2.7 10.2 2.7h3.8c.1 0 .1 0 .2.1 2.2 2.7 5.1 3.9 7.2 4.3h.2c.2 0 .5-.1.6-.3.2-.2.2-.5.1-.8-.7-1.2-1.5-3.1-1.7-5.5 3.6-2.8 6.4-8.1 6.4-11.3z"/></svg>
