<svg width="25" height="33" viewBox="0 0 25 33" xmlns="http://www.w3.org/2000/svg" xmlns:xlink="http://www.w3.org/1999/xlink"><defs><path id="a" d="M0 33h24.955V.262H0z"/></defs><g fill="none" fill-rule="evenodd"><path d="M12.77 16.74c-1.66-.513-1.66-1.288-1.66-1.75.002-.365.338-1.364 1.424-1.364.723 0 1.28.296 1.622.545.357.26.858.184 1.118-.174.26-.358.183-.858-.174-1.118-.412-.3-1.032-.64-1.823-.78V10.45c0-.44-.358-.8-.8-.8-.44 0-.8.36-.8.8v1.7c-1.466.41-2.165 1.826-2.165 2.84 0 1.626.91 2.7 2.784 3.278.865.267 1.895.77 1.895 1.65 0 .017-.098 1.715-1.656 1.715-1.002 0-1.715-.48-2.052-.767-.334-.286-.84-.244-1.127.09-.287.338-.245.843.09 1.13.402.34 1.171.862 2.232 1.06v1.44c0 .442.36.8.8.8.44 0 .8-.358.8-.8v-1.435c1.725-.373 2.514-2.02 2.514-3.232 0-.84-.392-2.367-3.02-3.18" fill="#DB1468"/><g transform="translate(0 -.262)"><mask id="b" fill="#fff"><use xlink:href="#a"/></mask><path d="M23.355 29.402c0 1.102-.842 1.998-1.877 1.998H3.476c-1.035 0-1.876-.896-1.876-1.998V3.858c0-1.102.84-1.997 1.876-1.997H15.64c.55 0 1.07.258 1.43.707.287.36.446.818.446 1.29v2.19c0 .912.686 1.652 1.53 1.652h2.432c1.035 0 1.877.895 1.877 1.997v19.705zM21.478 6.1l-2.362-.052v-2.19c0-.834-.283-1.647-.797-2.29C17.655.738 16.68.26 15.64.26H3.476C1.56.26 0 1.876 0 3.86v25.544C0 31.385 1.56 33 3.476 33h18.002c1.917 0 3.477-1.615 3.477-3.598V9.697c0-1.983-1.56-3.598-3.477-3.598z" fill="#DB1468" mask="url(#b)"/></g></g></svg>
