<svg width="23" height="23" viewBox="0 0 23 23" xmlns="http://www.w3.org/2000/svg" xmlns:xlink="http://www.w3.org/1999/xlink"><defs><path id="a" d="M0 23h23V0H0z"/></defs><g fill="none" fill-rule="evenodd"><g><mask id="b" fill="#fff"><use xlink:href="#a"/></mask><path d="M22.093 13.853h.004-.004zM11.5 1.303C5.877 1.302 1.302 5.876 1.302 11.5c0 5.623 4.575 10.198 10.198 10.198 3.604 0 8.374-2.096 9.96-8 .158-.716.238-1.456.238-2.198 0-5.623-4.575-10.198-10.198-10.198zM11.5 23C5.16 23 0 17.84 0 11.5S5.16 0 11.5 0 23 5.16 23 11.5c0 .842-.09 1.68-.27 2.494l-.008.028C20.95 20.65 15.57 23 11.5 23z" fill="#999999" mask="url(#b)"/></g><path d="M9.195 15.757c-.166 0-.333-.063-.46-.19-.254-.255-.254-.667 0-.92l7.213-7.214c.254-.254.666-.254.92 0 .255.255.255.666 0 .92l-7.213 7.214c-.126.127-.293.19-.46.19" fill="#999999"/><path d="M9.03 15.757c-.166 0-.332-.063-.46-.19l-2.44-2.44c-.253-.254-.253-.666 0-.92.255-.254.667-.254.922 0l2.44 2.44c.253.253.253.665 0 .92-.128.127-.294.19-.46.19" fill="#999999"/></g></svg>
