<?xml version="1.0" encoding="UTF-8" standalone="no"?>
<svg width="25px" height="24px" viewBox="0 0 25 24" version="1.1" xmlns="http://www.w3.org/2000/svg" xmlns:xlink="http://www.w3.org/1999/xlink">
    <g stroke="none" stroke-width="1" fill="none" fill-rule="evenodd">
        <g transform="translate(-608.000000, -1163.000000)" fill="#3B8ABF">
            <g transform="translate(584.000000, 992.000000)">
                <g transform="translate(0.000000, 89.000000)">
                    <path d="M46.988,96.2943467 C45.3288,102.45488 40.3378667,104.641547 36.5661333,104.641547 C30.6824,104.641547 25.8957333,99.86768 25.8957333,93.9999467 C25.8957333,88.1322133 30.6824,83.3583467 36.5661333,83.3583467 C42.4498667,83.3583467 47.2365333,88.1322133 47.2365333,93.9999467 C47.2365333,94.77488 47.1528,95.5471467 46.988,96.2943467 M36.5661333,81.9999467 C29.9309333,81.9999467 24.5330667,87.3834133 24.5330667,93.9999467 C24.5330667,100.617013 29.9309333,105.999947 36.5661333,105.999947 C40.8237333,105.999947 46.4530667,103.54608 48.308,96.6314133 L48.3154667,96.6026133 C48.5037333,95.7546133 48.5992,94.87888 48.5992,93.9999467 C48.5992,87.3834133 43.2013333,81.9999467 36.5661333,81.9999467" id="Fill-1"></path>
                    <path d="M36.8158933,93.08464 C35.37536,92.6403733 35.37536,91.9673067 35.37536,91.56464 C35.37536,91.19344 35.68736,90.3785067 36.6148267,90.3785067 C37.24416,90.3785067 37.72896,90.63504 38.02496,90.8505067 C38.32896,91.0723733 38.75456,91.0051733 38.97696,90.70224 C39.1982933,90.3993067 39.1316267,89.97424 38.8276267,89.75344 C38.47136,89.49424 37.9342933,89.19824 37.24736,89.0777067 L37.24736,87.57264 C37.24736,87.1977067 36.9422933,86.8937067 36.5662933,86.8937067 C36.1902933,86.8937067 35.8852267,87.1977067 35.8852267,87.57264 L35.8852267,89.1187733 C34.61376,89.4665067 34.0132267,90.6915733 34.0132267,91.56464 C34.0132267,92.96304 34.7982933,93.8851733 36.4142933,94.3827733 C37.16416,94.6137067 38.05856,95.0505067 38.05856,95.8163733 C38.05856,96.13104 37.81376,97.3059733 36.6148267,97.3059733 C35.74656,97.3059733 35.1268267,96.8905067 34.8350933,96.6419733 C34.5492267,96.3987733 34.1182933,96.43344 33.87456,96.7193067 C33.63136,97.00464 33.6654933,97.4339733 33.9518933,97.6771733 C34.2996267,97.9721067 34.96576,98.4227733 35.8852267,98.5923733 L35.8852267,99.9785067 C35.8852267,100.35344 36.1902933,100.65744 36.5662933,100.65744 C36.9422933,100.65744 37.24736,100.35344 37.24736,99.9785067 L37.24736,98.59824 C38.7396267,98.2809067 39.4206933,96.8611733 39.4206933,95.8163733 C39.4206933,95.09584 39.08256,93.7827733 36.8158933,93.08464" id="Fill-4"></path>
                </g>
            </g>
        </g>
    </g>
</svg>
