<svg width="25" height="25" viewBox="0 0 29 29" xmlns="http://www.w3.org/2000/svg"><g fill="#F9883B" fill-rule="evenodd"><path d="M26.47 16.897c-1.956 7.282-7.84 9.867-12.285 9.867-6.936 0-12.58-5.643-12.58-12.58 0-6.936 5.644-12.578 12.58-12.578s12.58 5.642 12.58 12.58c0 .913-.1 1.825-.294 2.71M14.186 0C6.363 0 0 6.363 0 14.185c0 7.82 6.363 14.185 14.185 14.185 5.02 0 11.655-2.9 13.84-11.075l.01-.035c.222-1.004.334-2.04.334-3.075C28.37 6.363 22.005 0 14.184 0"/><path d="M14.853 14.533V6.706c0-.443-.36-.803-.803-.803-.443 0-.802.36-.802.803v8.63c0 .444.36.803.802.803h4.126c.444 0 .803-.36.803-.803 0-.444-.36-.804-.804-.804h-3.323z"/></g></svg>
