<svg width="52" height="48" viewBox="0 0 52 48" xmlns="http://www.w3.org/2000/svg"><defs><linearGradient x1="0%" y1="50%" y2="50%" id="a"><stop stop-color="#9D2B65" offset="0%"/><stop stop-color="#DF2A50" offset="100%"/></linearGradient></defs><path d="M28.45 31.215h10.664v8.887H28.45v-8.887zm-.888-1.777c-.49 0-.89.398-.89.89V40.99c0 .492.4.89.89.89h12.44c.492 0 .89-.398.89-.89V30.328c0-.49-.398-.89-.89-.89h-12.44zM8.01 22.252c.36.49.79.932 1.334 1.246 1.374.794 3.07.794 4.443 0 .543-.314.974-.755 1.333-1.246.36.49.79.932 1.333 1.246 1.374.794 3.07.794 4.444 0 .543-.314.974-.755 1.333-1.246.36.49.79.932 1.332 1.246 1.375.794 3.07.794 4.445 0 .542-.314.973-.755 1.332-1.246.358.49.79.932 1.332 1.246 1.373.794 3.07.794 4.444 0 .543-.314.974-.755 1.333-1.246.358.49.79.932 1.332 1.246 1.373.794 3.07.794 4.443 0 .543-.314.974-.755 1.333-1.246.25.342.547.642.89.903v24.057H19.562V35.648c0-.49-.398-.888-.888-.888h-7.11c-.49 0-.888.398-.888.888v11.564H7.122V23.155c.342-.26.638-.56.888-.903zM6.13 8.11h39.313l4.32 11.664c-.045.904-.528 1.728-1.317 2.183-.827.477-1.84.477-2.666 0-.826-.476-1.333-1.354-1.333-2.31 0-.028 0-.06-.003-.09-.02-.208-.112-.403-.26-.55-.02-.02-.04-.04-.063-.06h-.003c-.14-.113-.308-.182-.486-.197-.057-.005-.115-.004-.172.003h-.004c-.207.024-.4.12-.542.27v.003l-.06.067v.004c-.016.022-.032.045-.047.07-.002 0-.002.002-.003.002l-.018.03-.024.042v.004c-.013.026-.025.053-.035.08v.003c-.01.025-.02.052-.028.08v.002c-.007.028-.013.056-.017.084v.003c-.005.03-.01.057-.01.086v.062c0 .955-.507 1.833-1.333 2.31-.826.476-1.84.476-2.667 0-.826-.477-1.332-1.355-1.332-2.31 0-.03 0-.06-.004-.09-.02-.21-.11-.404-.26-.552-.02-.02-.04-.04-.063-.06h-.003c-.138-.112-.307-.18-.485-.196-.058-.005-.117-.004-.174.003h-.003c-.207.024-.4.12-.542.27v.003l-.06.067v.004c-.016.022-.033.045-.047.07l-.004.002-.018.03-.024.042v.004l-.035.08v.003c-.01.025-.02.052-.027.08v.002c-.008.028-.013.056-.018.084v.003c-.004.03-.008.057-.01.086v.062c0 .955-.507 1.833-1.333 2.31-.826.476-1.84.476-2.666 0-.825-.477-1.332-1.355-1.332-2.31 0-.03 0-.06-.004-.09-.018-.21-.11-.404-.26-.552-.02-.02-.04-.04-.063-.06-.14-.112-.31-.18-.488-.196-.058-.005-.116-.004-.173.003h-.005c-.207.024-.398.12-.542.27v.003l-.06.067v.004c-.015.022-.032.045-.047.07l-.004.002-.017.03-.024.042v.004c-.012.026-.024.053-.034.08v.003c-.01.025-.02.052-.028.08v.002c-.007.028-.013.056-.017.084v.003c-.004.03-.008.057-.01.086v.062c0 .955-.506 1.833-1.332 2.31-.826.476-1.84.476-2.667 0-.825-.477-1.332-1.355-1.332-2.31 0-.03 0-.06-.003-.09-.02-.21-.11-.404-.26-.552-.02-.02-.04-.04-.063-.06h-.003c-.14-.112-.31-.18-.487-.196-.06-.005-.117-.004-.174.003h-.005c-.206.024-.397.12-.54.27v.003c-.022.023-.04.044-.06.067v.004c-.017.022-.034.045-.048.07l-.004.002-.018.03-.024.042v.004c-.012.026-.024.053-.034.08v.003c-.01.025-.02.052-.027.08v.002c-.008.028-.014.056-.02.084v.003l-.01.086v.062c0 .955-.506 1.833-1.332 2.31-.826.476-1.84.476-2.666 0-.826-.477-1.333-1.355-1.333-2.31 0-.03-.002-.06-.005-.09-.018-.21-.11-.404-.26-.552-.02-.02-.04-.04-.063-.06h-.003c-.14-.112-.31-.18-.487-.196-.058-.005-.115-.004-.174.003h-.004c-.207.024-.398.12-.54.27v.003c-.022.023-.042.044-.06.067v.004c-.018.022-.034.045-.05.07l-.003.002-.017.03c-.01.015-.017.03-.024.042v.004c-.013.026-.024.053-.035.08v.003c-.01.025-.02.052-.028.08v.002c-.008.028-.014.056-.018.084v.003c-.005.03-.008.057-.01.086v.062c0 .955-.507 1.833-1.333 2.31-.828.476-1.842.476-2.668 0-.826-.477-1.333-1.355-1.333-2.31 0-.03-.002-.06-.004-.09-.02-.21-.11-.404-.26-.552-.02-.02-.04-.04-.063-.06H8.57c-.14-.112-.308-.18-.487-.196-.057-.005-.115-.004-.173.003h-.004c-.206.024-.398.12-.54.27v.003c-.022.023-.04.044-.06.067v.004c-.017.022-.034.045-.05.07 0 0 0 .002-.002.002-.006.01-.01.02-.017.03l-.025.042v.004c-.013.026-.024.053-.034.08v.003c-.01.025-.02.052-.028.08v.002c-.007.028-.013.056-.017.084v.003c-.006.03-.01.057-.01.086v.062c0 .955-.508 1.833-1.334 2.31-.827.476-1.84.476-2.667 0-.788-.455-1.27-1.28-1.316-2.18L6.13 8.11zm6.185-5.332h26.942c.896 0 1.635.752 1.635 1.777v1.777H10.677V4.555c0-1.025.743-1.777 1.638-1.777zm0-1.778C10.413 1 8.9 2.626 8.9 4.555v1.777H5.51c-.37 0-.704.233-.83.583L.123 19.207c-.05.092-.085.19-.1.292-.04.174-.03.357.037.523.126 1.437.912 2.747 2.175 3.475.953.55 2.06.693 3.11.48V48.1c0 .492.398.89.89.89h5.195c.486.074.94-.26 1.013-.743.008-.05.012-.097.012-.146V36.538h5.332V48.1c-.006.492.388.893.88.9.045 0 .09-.004.137-.01h26.53c.492 0 .89-.398.89-.89V23.978c1.05.214 2.157.072 3.11-.48 1.264-.728 2.05-2.04 2.174-3.477.07-.175.08-.367.034-.55-.017-.092-.05-.182-.097-.265l-4.55-12.29c-.13-.35-.462-.582-.833-.583H42.67V4.555C42.67 2.625 41.16 1 39.257 1H12.315z" transform="translate(0 -1)" fill="url(#a)" fill-rule="evenodd"/></svg>
