<svg width="30" height="33" viewBox="0 0 30 33" xmlns="http://www.w3.org/2000/svg"><path d="M8.368 21.897c-.126 0-.262.044-.438.134-.256.13-1.577.678-3.565 1.5-.807.336-1.576.654-2.09.87-.848.354-.932 1.454-.908 2.37l.003.174c0 .202.052.91.725 1.53l.163.152c.8.757 2.467 2.332 5.676 2.332 3.25 0 6.487-2.272 7.402-2.97.046-.033.135-.094.265-.183 5.292-3.592 9.17-8.043 10.925-12.533 2.43-6.218 2.18-7.257 1.98-8.092-.052-.21-.11-.45-.136-.738-.1-1.137-1.652-4.025-3.145-4.56-1.563-.564-2.743-.55-3.025-.49-.097.106-.263.45-.4.734-.063.133-.132.277-.208.43-.606 1.222-2.217 4.547-2.427 5.133-.244.676-.196.707.115.914.826.557 2.633 2.115 3.035 2.47.98.86.67 1.817.348 2.462-.056.115-.122.27-.205.463-.46 1.068-1.416 3.29-3.644 5.81-1.99 2.246-4.437 3.807-5.397 4.374-1.22.713-1.997-.065-2.37-.44-.204-.206-.512-.46-.81-.708-.162-.135-.324-.27-.475-.4-.31-.267-.532-.377-.9-.558l-.225-.11c-.09-.047-.177-.07-.27-.07M7.935 32.32c-3.75 0-5.755-1.894-6.612-2.703l-.15-.143c-1.05-.968-1.164-2.09-1.164-2.53l-.003-.14c-.02-.717-.072-2.903 1.742-3.66.515-.216 1.287-.536 2.096-.87 1.446-.6 3.246-1.346 3.473-1.46.25-.127 1.024-.522 1.933-.065l.212.106c.402.198.748.37 1.19.748.145.126.3.255.455.384.323.267.657.545.907.797.376.377.423.393.712.225.903-.533 3.207-2.003 5.07-4.102 2.08-2.356 2.946-4.366 3.41-5.447.094-.22.172-.397.237-.53.28-.563.184-.647-.028-.833-.526-.464-2.186-1.884-2.894-2.36-1.243-.83-.864-1.882-.637-2.51.296-.824 2.467-5.233 2.488-5.277l.203-.414c.297-.618.51-1.065.936-1.324L21.51.21c.65-.392 2.483-.22 4.175.39 2.11.758 3.906 4.212 4.04 5.72.017.188.056.35.102.54.27 1.127.55 2.29-2.035 8.91-1.854 4.742-5.913 9.417-11.428 13.162-.103.07-.175.118-.208.143-1 .76-4.55 3.245-8.226 3.245" fill="#DB1468" fill-rule="evenodd"/></svg>
