<svg id="Layer_1" xmlns="http://www.w3.org/2000/svg" viewBox="-281 373 48 48">
  <style>.st0{fill:url(#SVGID_1_);} .st1{fill:url(#SVGID_2_);} .st2{fill:url(#SVGID_3_);}</style>
  <linearGradient id="SVGID_1_" gradientUnits="userSpaceOnUse" x1="-259.6" y1="409.504" x2="-257.264" y2="407.168">
    <stop offset="0" stop-color="#9D2B65"/><stop offset="1" stop-color="#DE2A51"/>
  </linearGradient><circle class="st0" cx="-258.4" cy="408.3" r="1.2"/>
  <linearGradient id="SVGID_2_" gradientUnits="userSpaceOnUse" x1="-266.9" y1="401.005" x2="-249.13" y2="383.235">
    <stop offset="0" stop-color="#9D2B65"/><stop offset="1" stop-color="#DE2A51"/>
  </linearGradient>
  <path class="st1" d="M-257.2 383.6c-2.2 0-4.2.8-5.7 1.9-.4.3-.5.9-.2 1.3s.9.5 1.3.2c1.3-.9 2.9-1.6 4.7-1.6 2.9 0 5.5 2.5 5.5 4.4 0 2-.7 2.8-3 4.1-.2.1-.3.2-.4.3-3.1 1.8-4.4 3.5-4.4 7v1.6c0 .5.4.9.9.9s.9-.4.9-.9v-1.6c0-2.8.9-4 3.4-5.4.1-.1.2-.1.4-.3 2.8-1.6 3.9-2.9 3.9-5.7.1-2.9-3.4-6.2-7.3-6.2z"/>
  <linearGradient id="SVGID_3_" gradientUnits="userSpaceOnUse" x1="-281.022" y1="420.991" x2="-232.978" y2="372.947">
    <stop offset="0" stop-color="#9D2B65"/><stop offset="1" stop-color="#DE2A51"/>
  </linearGradient>
  <path class="st2" d="M-233 397c0-13.3-10.7-24-24-24s-24 10.7-24 24 10.7 24 24 24c10.8 0 20.3-6.9 23.4-18.8.4-1.7.6-3.4.6-5.2zm-24 22.2c-12.2 0-22.2-9.9-22.2-22.2s9.9-22.2 22.2-22.2 22.2 9.9 22.2 22.2c0 1.6-.2 3.2-.5 4.8-3 11-11.7 17.4-21.7 17.4z"/>
</svg>
